<?xml version="1.0" encoding="utf-8"?>
<!-- Generator: Adobe Illustrator 16.0.0, SVG Export Plug-In . SVG Version: 6.00 Build 0)  -->
<!DOCTYPE svg PUBLIC "-//W3C//DTD SVG 1.1//EN" "http://www.w3.org/Graphics/SVG/1.1/DTD/svg11.dtd">
<svg version="1.1"
	 id="svg2" xmlns:dc="http://purl.org/dc/elements/1.1/" xmlns:cc="http://creativecommons.org/ns#" xmlns:rdf="http://www.w3.org/1999/02/22-rdf-syntax-ns#" xmlns:svg="http://www.w3.org/2000/svg" xmlns:sodipodi="http://sodipodi.sourceforge.net/DTD/sodipodi-0.dtd" xmlns:inkscape="http://www.inkscape.org/namespaces/inkscape" sodipodi:docname="SCAPE CLOUD TOOLKIT LOGO.svg" inkscape:version="0.48.4 r9939"
	 xmlns="http://www.w3.org/2000/svg" xmlns:xlink="http://www.w3.org/1999/xlink" x="0px" y="0px" width="744.094px"
	 height="1052.363px" viewBox="0 0 744.094 1052.363" enable-background="new 0 0 744.094 1052.363" xml:space="preserve">
<sodipodi:namedview  showguides="true" showgrid="false" inkscape:cy="441.75185" inkscape:cx="444.82361" inkscape:zoom="0.9899495" borderopacity="1.0" bordercolor="#666666" pagecolor="#ffffff" id="base" inkscape:guide-bbox="true" inkscape:window-maximized="1" inkscape:window-y="24" inkscape:current-layer="layer1" inkscape:document-units="px" inkscape:pageopacity="0.0" inkscape:window-x="65" inkscape:window-height="744" inkscape:window-width="1301" inkscape:pageshadow="2">
	</sodipodi:namedview>
<g id="layer1" inkscape:label="SCAUN" inkscape:groupmode="layer">
	<g id="flowRoot2993">
	</g>
	<g id="layer1_1_" inkscape:label="SCAUN" inkscape:groupmode="layer">
		<g id="flowRoot2993_1_">
		</g>
		<rect id="rect3091_1_" x="482.582" y="506.254" fill="#3F3F3F" width="79.081" height="34.947"/>
		
			<path id="path3122_1_" sodipodi:nodetypes="cscccsccccc" inkscape:connector-curvature="0" fill="#3F3F3F" stroke="#3F3F3F" stroke-width="1.2044" d="
			M477.791,543.675c-0.006-2.615-2.74-2.471-2.74,0.088c0,3.473,0,10.127,0,10.127l94.58-0.361c0,0,0-7.176,0-10.766
			c0-1.563-2.835-1.563-2.818,0c0.032,2.953,0.137,9.146,0.137,9.146l-4.878-2.115l-80.053,0.008l-4.2,2.166
			C477.818,551.968,477.794,545.507,477.791,543.675z"/>
		<g id="path3218_1_" inkscape:connector-curvature="0">
			<path fill="#3F3F3F" d="M492.477,625.697c0,0,3.855-4.693,9.638-11.732c2.897-3.514,6.272-7.619,9.937-11.975
				c3.652-4.365,7.549-9.021,11.444-13.678c1.936-2.34,3.871-4.68,5.776-6.982c1.89-2.316,3.771-4.578,5.637-6.725
				c1.882-2.135,3.725-4.176,5.529-6.063c0.898-0.947,1.771-1.867,2.616-2.76c0.86-0.877,1.691-1.725,2.489-2.539
				c1.596-1.627,3.097-3.086,4.427-4.379c1.338-1.287,2.516-2.398,3.502-3.297c1.967-1.809,3.145-2.793,3.145-2.793
				c0.086-0.072,0.214-0.061,0.285,0.025c0.059,0.07,0.062,0.166,0.016,0.238c0,0-0.827,1.295-2.368,3.477
				c-0.767,1.092-1.719,2.402-2.823,3.895c-1.113,1.484-2.367,3.158-3.779,4.949c-0.705,0.895-1.44,1.828-2.2,2.793
				c-0.776,0.951-1.578,1.936-2.403,2.945c-1.64,2.031-3.43,4.119-5.306,6.26c-1.893,2.125-3.896,4.277-5.952,6.447
				c-2.04,2.184-4.113,4.402-6.187,6.621c-4.122,4.459-8.243,8.916-12.106,13.096c-3.853,4.191-7.493,8.063-10.608,11.385
				c-6.244,6.633-10.406,11.055-10.406,11.055c-0.076,0.082-0.202,0.086-0.283,0.01
				C492.417,625.898,492.412,625.777,492.477,625.697z"/>
		</g>
		<g id="path3220_1_" sodipodi:nodetypes="ccc" inkscape:connector-curvature="0">
			<path fill="#3F3F3F" d="M550.084,626.771c0,0-4.044-4.521-10.109-11.301c-3.026-3.396-6.563-7.354-10.302-11.633
				c-3.752-4.271-7.753-8.828-11.755-13.383c-2.014-2.268-4.027-4.533-6.009-6.766c-1.998-2.219-3.943-4.42-5.778-6.59
				c-1.818-2.182-3.553-4.313-5.139-6.381c-0.798-1.031-1.573-2.033-2.324-3.004c-0.734-0.982-1.444-1.932-2.125-2.844
				c-1.364-1.822-2.574-3.527-3.647-5.037c-1.064-1.518-1.981-2.85-2.719-3.961c-1.483-2.217-2.275-3.529-2.275-3.529
				c-0.058-0.096-0.027-0.221,0.068-0.277c0.077-0.047,0.174-0.035,0.238,0.021c0,0,1.151,1.012,3.069,2.865
				c0.962,0.924,2.11,2.063,3.413,3.381c1.295,1.324,2.757,2.818,4.309,4.484c0.775,0.834,1.584,1.701,2.421,2.598
				c0.82,0.912,1.669,1.854,2.542,2.82c1.754,1.93,3.541,4.016,5.366,6.193c1.809,2.191,3.629,4.496,5.456,6.857
				c1.844,2.348,3.717,4.732,5.59,7.117c3.771,4.746,7.542,9.494,11.078,13.945c3.547,4.441,6.813,8.625,9.616,12.207
				c5.593,7.176,9.322,11.959,9.322,11.959c0.068,0.086,0.053,0.213-0.034,0.279C550.273,626.861,550.154,626.849,550.084,626.771z"
				/>
		</g>
		<g id="path4002_1_" sodipodi:nodetypes="cscccsc" inkscape:connector-curvature="0">
			<path fill="#009EC9" d="M562.552,495.116c-0.174-2.397-0.66-4.771-1.184-7.123c-0.564-2.332-1.265-4.645-2.059-6.911
				c-1.59-4.538-3.649-8.895-6.102-12.981c-2.469-4.076-5.398-7.853-8.801-11.104c-3.385-3.265-7.242-5.996-11.431-8.024
				c-4.186-2.041-8.698-3.339-13.305-4.006c-4.609-0.661-9.316-0.719-13.991-0.242c-4.677,0.443-9.319,1.399-13.887,2.642
				c-2.285,0.624-4.556,1.316-6.803,2.093c-2.25,0.763-4.474,1.619-6.688,2.5l-4.54,1.808l0.793-4.864
				c0.827-5.075,1.334-10.188,1.427-15.29c0.051-5.098-0.199-10.192-1.046-15.18c-0.823-4.987-2.153-9.873-4.047-14.519
				c-1.882-4.651-4.355-9.038-7.291-13.083c-2.937-4.048-6.386-7.724-10.229-10.951c-3.852-3.216-8.056-6.032-12.524-8.394
				c-4.468-2.369-9.21-4.232-14.074-5.724c-4.865-1.493-9.884-2.544-14.964-3.167c-10.162-1.242-20.578-0.785-30.638,1.401
				c-10.044,2.201-19.771,6.177-28.204,12.129c-4.186,3.006-8.016,6.512-11.329,10.46c-3.331,3.936-6.075,8.364-8.146,13.089
				c-2.083,4.722-3.5,9.735-4.265,14.853c-0.743,5.123-0.824,10.336-0.402,15.507l0.136,1.667l-1.588-0.548
				c-4.172-1.44-8.446-2.596-12.795-3.222c-4.344-0.62-8.749-0.779-13.07-0.285c-4.319,0.48-8.543,1.677-12.367,3.628
				c-3.825,1.939-7.248,4.624-9.943,7.912c-2.72,3.268-4.709,7.108-5.924,11.175c-1.236,4.066-1.653,8.365-1.408,12.613
				c0.246,4.254,1.167,8.466,2.628,12.48c1.46,4.019,3.456,7.841,5.84,11.405l3.463,5.177l-6.167-1.402
				c-3.723-0.846-7.524-1.165-11.267-0.904c-3.748,0.24-7.414,1.179-10.866,2.621c-6.919,2.898-12.887,7.958-17.502,14.04
				c-4.67,6.066-8.047,13.153-10.248,20.54c-2.169,7.408-3.094,15.184-2.665,22.84c0.443,7.65,2.334,15.18,5.738,21.906
				c3.418,6.717,8.408,12.533,14.473,16.973c6.073,4.451,13.201,7.461,20.659,9.303c3.684,0.889,7.72,1.584,11.438,2.004
				c3.847,0.451,7.707,0.539,11.539,0.361c7.669-0.361,15.208-2.117,22.286-5.17c7.108-2.998,13.749-7.223,20.104-11.969
				c6.366-4.748,12.472-10.014,18.866-15.088c6.384-5.074,13.075-10.02,20.515-13.881c3.723-1.908,7.622-3.525,11.657-4.729
				c4.034-1.203,8.2-1.967,12.383-2.293c8.386-0.684,16.744,0.529,24.671,2.719c7.95,2.209,15.472,5.535,22.689,9.297
				c7.226,3.764,14.137,8.055,20.787,12.688l0.288,0.199l-0.366,0.568l-0.301-0.18c-6.941-4.141-14.037-8.01-21.347-11.357
				l-2.747-1.24l-2.779-1.154c-1.843-0.795-3.735-1.453-5.606-2.16c-3.781-1.299-7.588-2.508-11.456-3.408
				c-7.72-1.809-15.669-2.625-23.418-1.684c-7.756,0.875-15.184,3.516-21.977,7.365c-6.841,3.795-13.109,8.682-19.236,13.84
				c-6.123,5.176-12.174,10.607-18.683,15.668c-6.494,5.059-13.502,9.754-21.253,13.211c-7.74,3.451-16.185,5.52-24.675,6.01
				c-8.486,0.533-16.989-0.436-25.163-2.336c-8.224-2.043-16.29-5.428-23.281-10.568c-3.49-2.561-6.699-5.533-9.496-8.857
				c-2.779-3.338-5.172-6.996-7.067-10.883c-3.804-7.775-5.788-16.303-6.163-24.799c-0.359-8.508,0.781-17.014,3.269-25.099
				c2.53-8.062,6.312-15.796,11.637-22.479c5.281-6.659,12.143-12.367,20.283-15.521c4.053-1.561,8.363-2.524,12.702-2.679
				c4.335-0.191,8.667,0.337,12.794,1.445l-2.703,3.775c-2.458-3.958-4.491-8.197-5.937-12.645
				c-1.446-4.444-2.301-9.098-2.412-13.788c-0.104-4.685,0.51-9.412,2.004-13.875c1.479-4.462,3.815-8.659,6.93-12.184
				c3.09-3.546,6.949-6.382,11.163-8.363c4.219-1.988,8.775-3.124,13.35-3.578c4.583-0.446,9.189-0.197,13.688,0.522
				c2.248,0.376,4.471,0.861,6.672,1.424c2.198,0.577,4.36,1.265,6.5,2.009l-1.452,1.118c-0.817-10.616,0.531-21.552,4.804-31.426
				c2.131-4.923,4.933-9.559,8.288-13.753c3.359-4.194,7.277-7.931,11.56-11.171c8.555-6.524,18.543-11.046,28.95-13.732
				c10.425-2.677,21.314-3.542,32.088-2.617c5.388,0.466,10.749,1.389,16.001,2.798c5.251,1.413,10.369,3.371,15.261,5.823
				c4.889,2.453,9.546,5.433,13.768,8.973c4.23,3.523,8.055,7.562,11.316,12.023c3.268,4.458,5.909,9.363,7.943,14.481
				c2.032,5.122,3.432,10.468,4.272,15.871c0.847,5.405,1.123,10.869,0.935,16.289c-0.205,5.421-0.847,10.796-1.817,16.09
				l-3.747-3.056c2.321-0.873,4.654-1.719,7.024-2.471c2.364-0.767,4.761-1.447,7.179-2.056c4.843-1.19,9.796-2.042,14.814-2.373
				c5.012-0.359,10.1-0.153,15.094,0.717c4.992,0.875,9.87,2.53,14.344,4.924c4.472,2.396,8.54,5.51,11.989,9.161
				c3.457,3.65,6.333,7.777,8.688,12.142c2.357,4.367,4.159,8.993,5.522,13.719c0.686,2.365,1.23,4.76,1.638,7.192
				c0.361,2.425,0.685,4.863,0.689,7.33l0.001,0.35l-0.675,0.025L562.552,495.116z"/>
		</g>
		
			<path id="path4079_1_" sodipodi:nodetypes="cc" inkscape:connector-curvature="0" fill="none" stroke="#8DC6DD" stroke-width="2" stroke-linecap="round" d="
			M466.031,584.886c-132.5-76.531-89.667,69.303-228,22.303"/>
		
			<path id="path4079-3_1_" sodipodi:nodetypes="cc" inkscape:connector-curvature="0" fill="none" stroke="#5FAEC8" stroke-width="3" stroke-linecap="round" d="
			M470.236,596.996c-134.538-75.806-84.205,61.861-227.343,22.596"/>
		
			<path id="path4079-5_1_" sodipodi:nodetypes="cc" inkscape:connector-curvature="0" fill="none" stroke="#449FBD" stroke-width="4" stroke-linecap="round" d="
			M473.167,608.523c-132.803-75.969-80.389,58.676-226.1,22.646"/>
		
			<path id="path4079-1_1_" sodipodi:nodetypes="cc" inkscape:connector-curvature="0" fill="none" stroke="#1D82A4" stroke-width="5" stroke-linecap="round" d="
			M477.341,623.914c-130.811-82.662-80.326,54.824-226.038,18.795"/>
		<g>
			<path fill="#02A8CE" d="M415.421,383.021c0,0,1.063,0.048,2.89,0.388c1.822,0.349,4.43,0.93,7.442,2.023
				c1.498,0.559,3.121,1.19,4.767,2.014c1.658,0.796,3.37,1.724,5.061,2.817c1.703,1.072,3.388,2.303,5.022,3.65
				c1.608,1.376,3.195,2.837,4.646,4.431l1.078,1.202l1.011,1.255c0.69,0.821,1.299,1.7,1.915,2.562
				c1.229,1.727,2.262,3.542,3.202,5.32c0.924,1.787,1.717,3.566,2.351,5.292c0.164,0.429,0.327,0.852,0.486,1.269
				c0.136,0.425,0.269,0.844,0.4,1.256c0.244,0.829,0.526,1.614,0.713,2.393c0.383,1.554,0.759,2.969,0.943,4.255
				c0.215,1.279,0.44,2.382,0.522,3.309c0.21,1.845,0.301,2.897,0.301,2.897s-0.267-1.029-0.684-2.826
				c-0.178-0.904-0.519-1.975-0.863-3.208c-0.32-1.24-0.842-2.591-1.316-4.085c-0.239-0.747-0.577-1.495-0.877-2.284
				c-0.151-0.393-0.307-0.793-0.464-1.199c-0.179-0.397-0.359-0.8-0.543-1.209c-0.709-1.645-1.584-3.317-2.519-5.023
				c-0.954-1.697-2.048-3.384-3.23-5.043c-0.603-0.822-1.195-1.662-1.869-2.443l-0.983-1.196l-1.048-1.144
				c-1.375-1.547-2.886-2.968-4.419-4.31c-1.567-1.301-3.124-2.578-4.745-3.658c-1.607-1.096-3.205-2.102-4.775-2.962
				c-1.562-0.877-3.091-1.613-4.513-2.275c-2.864-1.276-5.333-2.193-7.103-2.706C416.458,383.244,415.421,383.021,415.421,383.021z"
				/>
		</g>
	</g>
</g>
<g id="layer2" inkscape:label="Layer" inkscape:groupmode="layer">
</g>
</svg>
